<?xml version="1.0" encoding="UTF-8"?>
<svg id="Layer_1" xmlns="http://www.w3.org/2000/svg" version="1.1" viewBox="0 0 841.89 595.28">
  <!-- Generator: Adobe Illustrator 30.3.0, SVG Export Plug-In . SVG Version: 2.1.3 Build 182)  -->
  <defs>
    <style>
      .st0 {
        stroke-miterlimit: 40;
      }

      .st0, .st1, .st2, .st3, .st4, .st5, .st6, .st7 {
        stroke: #b08a8e;
        stroke-linecap: round;
      }

      .st0, .st1, .st4, .st5, .st7 {
        fill: none;
      }

      .st0, .st1, .st6 {
        stroke-width: 10px;
      }

      .st1, .st2, .st3, .st4, .st5, .st6, .st7 {
        stroke-miterlimit: 40;
      }

      .st2 {
        opacity: .94;
      }

      .st2, .st3, .st6 {
        fill: #b08a8e;
      }

      .st2, .st4 {
        stroke-width: 12px;
      }

      .st3 {
        stroke-width: 8px;
      }

      .st3, .st4, .st5 {
        opacity: .96;
      }

      .st5 {
        stroke-width: 9px;
      }

      .st6, .st7 {
        opacity: .95;
      }

      .st7 {
        stroke-width: 7px;
      }
    </style>
  </defs>
  <g>
    <line class="st7" x1="424.71" y1="284.77" x2="464.09" y2="219.13"/>
    <line class="st5" x1="418.82" y1="294.58" x2="367.14" y2="208.44"/>
    <line class="st4" x1="418.82" y1="294.58" x2="418.82" y2="174.58"/>
    <path class="st0" d="M225.73,186.02c66.28-.43,153.09,39.28,179.43,104.9l10,17.32,12.32-18.66c-9.02-75.62-56.85-152.58-201.75-103.56Z"/>
    <path class="st0" d="M617.66,404.36c-67.57-2.5-161.71-53.61-190.17-114.78l-5-8.66-12.32,18.66c9.02,75.62,83.02,142.63,207.49,104.78Z"/>
    <circle class="st2" cx="418.82" cy="164.58" r="8"/>
    <circle class="st6" cx="469.33" cy="210.4" r="8"/>
    <circle class="st3" cx="363.52" cy="202.4" r="8"/>
    <path class="st0" d="M416.22,517.41c-59.28-57.32-50.98-146.67.64-204.16l10-17.32s0,0-22.32-1.34c-60,46-100.29,122.78,11.68,222.82Z"/>
    <path class="st0" d="M418.56,75.03c59.28,57.32,40.26,150.26-3.4,205.88l-10,17.32,22.32,1.34c60.98-45.62,105.98-123.56-8.92-224.54Z"/>
    <path class="st0" d="M418.73,76.02c-4.88-.05-9.94,2.44-14.13,5.25-67.82,43.8-83.01,141.36-24.35,194.05,7.82,5.76,17.09,9.82,24.99,13.94,6.89,3.38,9.89,5.2,13.54,6.75.21,0,.33-.04.55-.14,1.58-.75,2.51-1.28,5.27-2.65,13.93-7.51,31.14-13.69,41.99-26.33,48.1-57.83,30.02-147.45-37.4-187.95-3.35-1.81-6.8-2.92-10.26-2.93h-.19Z"/>
    <path class="st1" d="M384.19,312.37c-63.22,58.25-55.59,163.61,26.64,201.75,2.73,1.27,7.93,5.01,7.93,5.01,75.72-35.04,100.8-136.54,47.88-195.69-4.85-5.56-14.85-14.68-21.51-17.93-7.48-3.77-20.2-7.86-26.29-10.92"/>
  </g>
  <path class="st0" d="M398.91,496.45"/>
  <path class="st0" d="M254.98,434.99"/>
</svg>